<?xml version="1.0" encoding="utf-8"?>
<!-- Generator: Adobe Illustrator 16.0.4, SVG Export Plug-In . SVG Version: 6.00 Build 0)  -->
<!DOCTYPE svg PUBLIC "-//W3C//DTD SVG 1.1//EN" "http://www.w3.org/Graphics/SVG/1.1/DTD/svg11.dtd">
<svg version="1.1" id="Layer_1" xmlns="http://www.w3.org/2000/svg" xmlns:xlink="http://www.w3.org/1999/xlink" x="0px" y="0px"
	 width="54.752px" height="39.747px" viewBox="0 0 54.752 39.747" enable-background="new 0 0 54.752 39.747" xml:space="preserve">
<g>
	<path fill="#FFFFFF" fill-opacity="0.9412" d="M35.19,25.517l2.147-0.562l0.354-1.261l-1.545-1.593l0.162-1.173l1.916-1.117v-1.31
		l-1.916-1.119l-0.162-1.172l1.545-1.592l-0.354-1.261l-2.147-0.562l-0.472-1.085l1.057-1.949l-0.68-1.117l-2.219,0.037
		l-0.748-0.918l0.492-2.161l-0.957-0.894l-2.125,0.635L28.57,4.661l-0.107-2.214L27.3,1.847l-1.878,1.183l-1.113-0.396l-0.703-2.1
		l-1.28-0.266l-1.489,1.645l-1.18-0.081L18.412,0l-1.304,0.09l-0.99,1.983l-1.159,0.24l-1.69-1.426l-1.232,0.437l-0.417,2.178
		l-1.053,0.544L8.556,3.129l-1.07,0.754L7.67,6.091L6.806,6.898l-2.185-0.34L3.795,7.574l0.773,2.075L3.953,10.66l-2.195,0.265
		l-0.521,1.2l1.305,1.787l-0.319,1.139l-2.044,0.849L0,17.196l1.738,1.368v1.184L0,21.116l0.178,1.296l2.044,0.849l0.319,1.14
		l-1.305,1.788l0.521,1.2l2.195,0.264l0.615,1.012l-0.773,2.074l0.826,1.016l2.185-0.34l0.864,0.808L7.485,34.43l1.07,0.755
		l2.011-0.918l1.053,0.544l0.417,2.177l1.232,0.438l1.69-1.427l1.159,0.241l0.99,1.983l1.304,0.089l1.244-1.831l1.18-0.081
		l1.489,1.645l1.28-0.266l0.703-2.1l1.113-0.396l1.878,1.183l1.163-0.602l0.107-2.212l0.969-0.684l2.125,0.635l0.957-0.894
		l-0.492-2.161l0.748-0.918l2.219,0.038l0.68-1.118l-1.057-1.949L35.19,25.517z M19.064,35.381c-8.946,0-16.225-7.278-16.225-16.225
		S10.118,2.932,19.064,2.932s16.225,7.278,16.225,16.225S28.011,35.381,19.064,35.381z"/>
	<circle fill="#FFFFFF" fill-opacity="0.9412" cx="19.064" cy="19.156" r="2.965"/>
	<path fill="#FFFFFF" fill-opacity="0.9412" d="M19.064,3.932c-8.408,0-15.225,6.816-15.225,15.225s6.816,15.225,15.225,15.225
		s15.225-6.816,15.225-15.225S27.473,3.932,19.064,3.932z M19.064,24.121c-2.737,0-4.965-2.228-4.965-4.965s2.228-4.965,4.965-4.965
		s4.964,2.228,4.964,4.965S21.802,24.121,19.064,24.121z"/>
	<path fill="#FFFFFF" fill-opacity="0.9412" d="M52.98,29.727c-0.153-1.632,1.895-0.106,1.475-1.689
		c-0.422-1.585-1.444,0.755-2.121-0.739c-0.676-1.492,1.76-0.72,0.847-2.081c-0.911-1.36-1.122,1.187-2.249-0.007
		c-1.123-1.192,1.436-1.249,0.129-2.241c-1.305-0.991-0.679,1.485-2.129,0.723c-1.452-0.764,0.95-1.649-0.609-2.164
		c-1.556-0.515-0.157,1.624-1.776,1.373c-1.621-0.252,0.358-1.864-1.281-1.844c-1.64,0.018,0.381,1.585-1.233,1.872
		c-1.613,0.289-0.264-1.878-1.809-1.329c-1.545,0.551,0.871,1.378-0.561,2.173c-1.435,0.797-0.861-1.691-2.145-0.67
		c-1.281,1.022,1.273,1.018,0.178,2.235c-1.097,1.219-1.365-1.319-2.244,0.063c-0.882,1.381,1.533,0.548,0.892,2.058
		c-0.642,1.508-1.72-0.806-2.104,0.788c-0.384,1.593,1.632,0.022,1.517,1.656c-0.116,1.635-1.891-0.205-1.736,1.426
		c0.154,1.63,1.552-0.509,1.973,1.075s-1.855,0.421-1.178,1.914c0.675,1.492,1.303-0.984,2.215,0.376
		c0.912,1.361-1.617,0.998-0.492,2.19c1.125,1.193,0.91-1.353,2.215-0.361s-1.204,1.468,0.246,2.231
		c1.451,0.765,0.422-1.573,1.979-1.06c1.558,0.515-0.66,1.777,0.961,2.029c1.618,0.25-0.115-1.627,1.523-1.646
		c1.641-0.02-0.047,1.9,1.566,1.611c1.614-0.287-0.633-1.505,0.912-2.055s0.569,1.812,2.002,1.015
		c1.433-0.797-1.088-1.213,0.193-2.235c1.283-1.021,1.129,1.528,2.226,0.31c1.097-1.22-1.426-0.795-0.545-2.176
		c0.881-1.383,1.564,1.076,2.206-0.431c0.641-1.509-1.605-0.291-1.222-1.885c0.385-1.593,1.83,0.513,1.946-1.121
		C54.863,29.478,53.135,31.358,52.98,29.727z M50.505,26.663l-3.775,2.18c-0.196-0.17-0.424-0.305-0.675-0.391v-4.291
		C47.873,24.335,49.463,25.28,50.505,26.663z M45.381,31.458c-0.583,0-1.056-0.475-1.056-1.057c0-0.584,0.473-1.057,1.056-1.057
		v-0.001c0.583,0,1.057,0.474,1.057,1.058C46.438,30.983,45.964,31.458,45.381,31.458z M44.704,24.179v4.275
		c-0.248,0.088-0.477,0.217-0.671,0.387l-3.68-2.123C41.367,25.341,42.92,24.388,44.704,24.179z M43.354,30.789l-3.73,2.156
		c-0.325-0.762-0.506-1.601-0.506-2.48c0-0.92,0.201-1.792,0.554-2.581l3.683,2.129c-0.024,0.125-0.034,0.256-0.034,0.389
		S43.329,30.664,43.354,30.789z M40.287,34.123l3.746-2.16c0.194,0.167,0.423,0.298,0.671,0.385v4.404
		C42.882,36.538,41.299,35.549,40.287,34.123z M46.055,36.77v-4.418c0.251-0.088,0.479-0.224,0.675-0.394l3.842,2.22
		C49.531,35.609,47.912,36.592,46.055,36.77z M51.247,33.008l-3.839-2.219c0.025-0.125,0.035-0.255,0.035-0.388
		s-0.01-0.264-0.035-0.389l3.791-2.19c0.371,0.805,0.584,1.698,0.584,2.643C51.783,31.37,51.59,32.229,51.247,33.008z"/>
</g>
</svg>
